<svg width="290" height="270" viewBox="0 0 290 270" fill="none" xmlns="http://www.w3.org/2000/svg">
<rect x="0.5" y="0.5" width="289" height="269" rx="49.5" fill="#131313" fill-opacity="0.9"/>
<rect x="0.5" y="0.5" width="289" height="269" rx="49.5" stroke="black"/>
<path d="M94.0881 203.385C93.9387 203.186 93.8553 203.039 93.8553 202.968C93.9317 203.108 94.0092 203.247 94.0881 203.385C94.7648 204.289 96.7956 206.29 98.5551 207.421C100.064 208.391 101.042 208.751 102.733 209.4L102.769 209.414C106.048 210.673 108.062 211.447 111.61 211.379C113.889 211.336 115.344 211.002 117.354 209.895C119.348 208.796 121.532 205.937 121.532 205.937C121.532 205.937 122.597 203.006 122.576 200.989C122.553 198.727 120.487 195.546 120.487 195.546C119.791 194.392 118.085 191.786 116.832 190.598C115.265 189.114 112.654 185.651 112.132 185.156C111.714 184.76 108.477 181.363 106.91 179.713C105.344 178.064 101.688 171.797 101.688 171.797C101.688 171.797 99.363 167.73 99.0773 164.87C98.8055 162.15 100.122 157.943 100.122 157.943C100.122 157.943 101.868 153.44 103.777 151.016C105.33 149.045 108.477 146.563 108.477 146.563C108.477 146.563 111.165 144.659 113.176 144.089C114.558 143.698 115.363 143.304 116.832 143.1C118.446 142.875 121.009 143.1 121.009 143.1C122.845 143.293 123.902 143.597 125.709 144.089C126.949 144.427 127.664 144.421 128.842 145.079C130.354 145.922 132.498 147.553 132.498 147.553L135.109 150.027L137.197 152.995C137.197 152.995 137.929 154.163 138.242 154.974C138.53 155.723 138.764 156.954 138.764 156.954C137.72 155.304 135.213 151.709 133.542 150.521C131.871 149.334 129.016 148.707 127.798 148.542C126.231 148.707 123.098 149.136 123.098 149.532C123.098 150.027 121.532 150.027 119.965 151.511C118.712 152.698 117.354 155.634 116.832 156.954C116.832 159.098 117.25 163.683 118.921 164.87C120.592 166.057 125.535 170.972 127.798 173.281L137.72 182.682C139.46 184.826 143.046 190.104 143.464 194.062C143.986 199.01 143.986 201.484 143.464 202.968C141.117 209.637 134.944 216.394 127.276 216.822C119.183 217.637 101.346 216.064 94.0881 203.385Z" fill="url(#paint0_linear_3_282)"/>
<path d="M93.8553 202.968C93.8553 203.364 96.4073 206.04 98.5551 207.421C100.064 208.391 101.042 208.751 102.733 209.4C106.033 210.667 108.049 211.447 111.61 211.379C113.889 211.336 115.344 211.002 117.354 209.895C119.348 208.796 121.532 205.937 121.532 205.937C121.532 205.937 122.597 203.006 122.576 200.989C122.553 198.727 120.487 195.546 120.487 195.546C119.791 194.392 118.085 191.786 116.832 190.598C115.265 189.114 112.654 185.651 112.132 185.156C111.714 184.76 108.477 181.363 106.91 179.713C105.344 178.064 101.688 171.797 101.688 171.797C101.688 171.797 99.363 167.73 99.0773 164.87C98.8055 162.15 100.122 157.943 100.122 157.943C100.122 157.943 101.868 153.44 103.777 151.016C105.33 149.045 108.477 146.563 108.477 146.563C108.477 146.563 111.165 144.659 113.176 144.089C114.558 143.698 115.363 143.304 116.832 143.1C118.446 142.875 121.009 143.1 121.009 143.1C122.845 143.293 123.902 143.597 125.709 144.089C126.949 144.427 127.664 144.421 128.842 145.079C130.354 145.922 132.498 147.553 132.498 147.553L135.109 150.027L137.197 152.995C137.197 152.995 137.929 154.163 138.242 154.974C138.53 155.723 138.764 156.954 138.764 156.954C137.72 155.304 135.213 151.709 133.542 150.521C131.871 149.334 129.016 148.707 127.798 148.542C126.231 148.707 123.098 149.136 123.098 149.532C123.098 150.027 121.532 150.027 119.965 151.511C118.712 152.698 117.354 155.634 116.832 156.954C116.832 159.098 117.25 163.683 118.921 164.87C120.592 166.057 125.535 170.972 127.798 173.281L137.72 182.682C139.46 184.826 143.046 190.104 143.464 194.062C143.986 199.01 143.986 201.484 143.464 202.968C141.117 209.637 134.944 216.394 127.276 216.822C119.095 217.646 100.957 216.03 93.8553 202.968Z" stroke="#131313" stroke-linejoin="round"/>
<path d="M197.623 204.201C197.772 203.999 197.855 203.851 197.855 203.778C197.779 203.92 197.701 204.061 197.623 204.201C196.946 205.117 194.915 207.145 193.156 208.291C191.646 209.275 190.669 209.639 188.978 210.297L188.941 210.312C185.662 211.588 183.648 212.372 180.101 212.303C177.821 212.259 176.366 211.921 174.357 210.799C172.362 209.685 170.179 206.787 170.179 206.787C170.179 206.787 169.114 203.817 169.135 201.772C169.158 199.48 171.223 196.256 171.223 196.256C171.92 195.086 173.626 192.445 174.879 191.242C176.445 189.737 179.056 186.227 179.579 185.726C179.996 185.324 183.234 181.881 184.801 180.209C186.367 178.538 190.022 172.186 190.022 172.186C190.022 172.186 192.348 168.064 192.633 165.166C192.905 162.408 191.589 158.145 191.589 158.145C191.589 158.145 189.843 153.581 187.934 151.125C186.381 149.127 183.234 146.611 183.234 146.611C183.234 146.611 180.546 144.681 178.534 144.104C177.153 143.708 176.348 143.308 174.879 143.101C173.265 142.874 170.701 143.101 170.701 143.101C168.866 143.297 167.809 143.605 166.002 144.104C164.762 144.446 164.047 144.44 162.868 145.107C161.357 145.962 159.213 147.614 159.213 147.614L156.602 150.122L154.513 153.13C154.513 153.13 153.782 154.314 153.469 155.136C153.181 155.895 152.947 157.142 152.947 157.142C153.991 155.471 156.498 151.827 158.169 150.623C159.84 149.42 162.694 148.784 163.913 148.617C165.479 148.784 168.613 149.219 168.613 149.62C168.613 150.122 170.179 150.122 171.746 151.626C172.999 152.83 174.357 155.805 174.879 157.142C174.879 159.315 174.461 163.962 172.79 165.166C171.119 166.369 166.176 171.35 163.913 173.69L153.991 183.218C152.25 185.391 148.665 190.74 148.247 194.752C147.725 199.767 147.725 202.274 148.247 203.778C150.593 210.538 156.767 217.386 164.435 217.819C172.528 218.646 190.365 217.052 197.623 204.201Z" fill="url(#paint1_linear_3_282)"/>
<path d="M197.855 203.778C197.855 204.179 195.303 206.892 193.156 208.291C191.646 209.275 190.669 209.639 188.978 210.297C185.677 211.582 183.662 212.372 180.101 212.303C177.821 212.259 176.366 211.921 174.357 210.799C172.362 209.685 170.179 206.787 170.179 206.787C170.179 206.787 169.114 203.817 169.135 201.772C169.158 199.48 171.223 196.256 171.223 196.256C171.92 195.086 173.626 192.445 174.879 191.242C176.445 189.737 179.056 186.227 179.579 185.726C179.996 185.324 183.234 181.881 184.801 180.209C186.367 178.538 190.022 172.186 190.022 172.186C190.022 172.186 192.348 168.064 192.633 165.166C192.905 162.408 191.589 158.145 191.589 158.145C191.589 158.145 189.843 153.581 187.934 151.125C186.381 149.127 183.234 146.611 183.234 146.611C183.234 146.611 180.546 144.681 178.534 144.104C177.153 143.708 176.348 143.308 174.879 143.101C173.265 142.874 170.701 143.101 170.701 143.101C168.866 143.297 167.809 143.605 166.002 144.104C164.762 144.446 164.047 144.44 162.868 145.107C161.357 145.962 159.213 147.614 159.213 147.614L156.602 150.122L154.513 153.13C154.513 153.13 153.782 154.314 153.469 155.136C153.181 155.895 152.947 157.142 152.947 157.142C153.991 155.471 156.498 151.827 158.169 150.623C159.84 149.42 162.694 148.784 163.913 148.617C165.479 148.784 168.613 149.219 168.613 149.62C168.613 150.122 170.179 150.122 171.746 151.626C172.999 152.83 174.357 155.805 174.879 157.142C174.879 159.315 174.461 163.962 172.79 165.166C171.119 166.369 166.176 171.35 163.913 173.69L153.991 183.218C152.25 185.391 148.665 190.74 148.247 194.752C147.725 199.767 147.725 202.274 148.247 203.778C150.593 210.538 156.767 217.386 164.435 217.819C172.616 218.655 190.754 217.017 197.855 203.778Z" stroke="#131313" stroke-linejoin="round"/>
<path fill-rule="evenodd" clip-rule="evenodd" d="M113.586 121.4C105.329 122.273 93.3147 128.817 89.3857 134.581C89.0557 135.066 88.0527 136.428 87.1557 137.608C84.0487 141.7 82.4377 145.327 80.5177 152.554C78.9187 158.569 80.3474 173.183 83.3814 178.5C84.873 181.114 85.7235 182.102 86.0362 181.5C86.3617 180.874 86.1046 178.526 85.3814 174.5C82.3284 157.499 87.3857 142.848 99.9667 134.971C101.937 133.737 104.007 132.619 104.567 132.484C105.128 132.35 106.239 131.914 107.037 131.514C117.061 126.496 135.73 131.27 144.016 140.969C146.345 143.695 146.053 143.739 149.715 140.119C159.531 130.416 175.638 126.605 185.891 131.559C186.796 131.996 187.752 132.354 188.017 132.354C190.66 132.354 199.819 140.03 203.052 144.954C207.977 152.456 210.04 163.537 208.041 171.754C206.729 177.144 207.128 181.189 208.602 177.454C208.885 176.739 209.435 175.794 209.826 175.354C212.863 171.933 213.815 156.23 211.429 148.904C202.801 122.405 170.833 112.349 149.545 129.437C147.52 131.062 145.586 131.196 143.917 129.826C141.7 128.007 137.166 125.199 135.986 124.913C135.326 124.753 134.336 124.299 133.786 123.905C131.178 122.033 120.324 120.687 113.586 121.4Z" fill="#AA6700"/>
<path d="M206.152 185.717C207.598 182.98 209.946 176.733 211.127 173.318C211.521 172.178 210.684 171.369 209.534 171.732C209.033 171.89 208.627 172.26 208.428 172.746C207.288 175.529 205.541 180.007 204.596 181.812C203.559 183.793 198.405 196.219 197.855 197C199.757 194.384 204.596 188.66 206.152 185.717Z" fill="#F09D1D" stroke="#F09D1D" stroke-linecap="round" stroke-linejoin="round"/>
<path d="M88.4066 188.175C86.8033 185.527 84.0959 179.427 82.7174 176.087C82.2575 174.972 83.0461 174.116 84.2153 174.411C84.7246 174.54 85.1514 174.885 85.3785 175.359C86.6789 178.07 88.684 182.439 89.732 184.186C90.8827 186.104 96.7514 198.209 97.346 198.956C95.2956 196.455 90.131 191.023 88.4066 188.175Z" fill="#F09D1D" stroke="#F09D1D" stroke-linecap="round" stroke-linejoin="round"/>
<path d="M145.355 144.5C144.689 143 140.955 138.7 131.355 133.5C119.355 127 105.855 132.5 101.355 134.5C96.8553 136.5 88.8553 145.5 85.3553 154.5C81.8553 163.5 84.8553 172 86.3553 178C87.5186 182.653 95.6674 195.513 99.9607 201.914C100.223 202.304 100.523 202.667 100.855 203V203L93.8553 196.5L92.481 194.914C89.0773 190.987 86.1795 186.648 83.8553 182V182L82.0109 177.257C80.9099 174.426 80.0895 171.493 79.5615 168.502L79.4818 168.05C79.065 165.688 78.8553 163.294 78.8553 160.895V160.503C78.8553 157.182 79.2887 153.875 80.1444 150.666V150.666C80.6178 148.891 81.2186 147.152 81.9422 145.464L82.0292 145.261C83.2428 142.429 84.7699 139.742 86.5819 137.251L87.8553 135.5V135.5C90.1802 132.843 92.8174 130.477 95.7096 128.452L96.3553 128L100.855 125.5L103.276 124.29C104.328 123.764 105.415 123.313 106.53 122.942V122.942C108.407 122.316 110.352 121.917 112.323 121.753L115.355 121.5H120.124C121.942 121.5 123.758 121.639 125.555 121.915V121.915C128.081 122.304 130.576 122.97 132.962 123.887V123.887C134.878 124.624 136.74 125.531 138.5 126.587L140.009 127.492C140.573 127.83 141.109 128.211 141.613 128.632L143.25 129.996C143.648 130.328 144.117 130.565 144.62 130.691L144.771 130.729C145.471 130.904 146.21 130.823 146.855 130.5V130.5L151.157 127.717C153.945 125.913 156.949 124.469 160.099 123.419V123.419C162.928 122.476 165.854 121.857 168.821 121.575L169.563 121.504C173.074 121.17 176.616 121.32 180.086 121.951V121.951C183.91 122.646 187.607 123.917 191.049 125.721L191.476 125.944C194.714 127.64 197.747 129.799 200.42 132.293V132.293C202.681 134.404 204.722 136.8 206.438 139.374L206.689 139.751C208.129 141.911 209.33 144.22 210.271 146.64V146.64C211.652 150.19 212.457 153.939 212.658 157.744L212.687 158.293C212.799 160.427 212.737 162.568 212.501 164.692L212.4 165.596C212.038 168.858 211.358 172.076 210.37 175.205L210.035 176.266C209.25 178.751 208.27 181.171 207.104 183.502V183.502C205.609 186.493 203.814 189.325 201.749 191.954L201.659 192.068C200.125 194.02 198.452 195.858 196.647 197.563C194.252 199.824 191.637 202.28 191.355 202.5C196.355 199 204.855 180.5 207.355 167.5C209.855 154.5 202.355 146.5 202.355 146C202.355 145.5 193.355 136.5 189.355 134C185.355 131.5 178.355 130.5 171.855 130.5C165.355 130.5 152.855 138.5 152.355 139C151.955 139.4 147.522 143.167 145.355 145" stroke="black" stroke-linecap="round" stroke-linejoin="round"/>
<path d="M73.2104 202.056C76.8488 203.979 93.4501 199.779 90.424 194.94C86.9672 189.411 79.7024 192.308 74.3887 196.087L72.6559 197.319C71.6853 198.615 71.7791 201.3 73.2104 202.056Z" fill="url(#paint2_linear_3_282)"/>
<path d="M72.5629 197.385L72.6559 197.319M72.6559 197.319L74.3887 196.087C79.7024 192.308 86.9672 189.411 90.424 194.94V194.94C93.4501 199.779 76.8488 203.979 73.2104 202.056C71.7791 201.3 71.6853 198.615 72.6559 197.319V197.319Z" stroke="#131313" stroke-linecap="round" stroke-linejoin="round"/>
<path d="M61.6439 191.28C65.8865 193.535 85.1186 188.653 81.5963 182.971C77.5904 176.508 69.1352 179.864 62.9584 184.298L60.9809 185.718C59.8498 187.246 59.965 190.388 61.6439 191.28Z" fill="url(#paint3_linear_3_282)"/>
<path d="M60.8731 185.795L60.9809 185.718M60.9809 185.718L62.9584 184.298C69.1352 179.864 77.5904 176.508 81.5963 182.971V182.971C85.1186 188.653 65.8865 193.535 61.6439 191.28C59.965 190.388 59.8498 187.246 60.9809 185.718V185.718Z" stroke="#131313" stroke-linecap="round" stroke-linejoin="round"/>
<path d="M52.4796 175.762C56.156 178.812 77.4373 178.515 75.1153 172.486C72.3551 165.32 63.0889 166.881 55.8858 169.544L53.1639 170.55C51.7431 171.631 51.1059 174.622 52.4796 175.762Z" fill="url(#paint4_linear_3_282)"/>
<path d="M53.0344 170.598L53.1639 170.55M53.1639 170.55L55.8858 169.544C63.0889 166.881 72.3551 165.32 75.1153 172.486V172.486C77.4373 178.515 56.156 178.812 52.4796 175.762C51.1059 174.622 51.7431 171.631 53.1639 170.55V170.55Z" stroke="#131313" stroke-linecap="round" stroke-linejoin="round"/>
<path d="M44.488 155.25C47.1971 158.313 74.9948 164.57 72.8654 159.569C69.6848 152.098 59.4603 152.326 51.3416 152.192L46.318 152.108C45.1241 152.336 43.6828 154.339 44.488 155.25Z" fill="url(#paint5_linear_3_282)"/>
<path d="M46.1539 152.106L46.318 152.108M46.318 152.108L51.3416 152.192C59.4603 152.326 69.6848 152.098 72.8654 159.569V159.569C74.9948 164.57 47.1971 158.313 44.488 155.25C43.6828 154.339 45.1241 152.336 46.318 152.108V152.108Z" stroke="#131313" stroke-linecap="round" stroke-linejoin="round"/>
<path d="M42.1252 134.509C44.7078 139.384 74.1022 153.701 73.5209 146.61C72.7095 136.714 60.473 133.835 50.7673 131.736L45.3753 130.571C43.6529 130.607 41.3188 132.986 42.1252 134.509Z" fill="url(#paint6_linear_3_282)"/>
<path d="M45.1848 130.53L45.3753 130.571M45.3753 130.571L50.7673 131.736C60.4731 133.835 72.7095 136.714 73.5209 146.61V146.61C74.1022 153.701 44.7078 139.384 42.1252 134.509C41.3188 132.986 43.6529 130.607 45.3753 130.571V130.571Z" stroke="#131313" stroke-linecap="round" stroke-linejoin="round"/>
<path d="M77.7352 134.185C77.8058 133.525 77.8282 132.879 77.8091 132.249C77.5217 122.789 67.2656 117.778 58.8505 113.446L51.4424 109.633C49.7885 109.195 46.8119 110.863 47.2424 112.518C48.6702 118.01 76.9491 141.537 77.7352 134.185Z" fill="url(#paint7_linear_3_282)"/>
<path d="M51.2512 109.534L51.4424 109.633M51.4424 109.633L58.8505 113.446C67.2656 117.778 77.5217 122.789 77.8091 132.249C77.8282 132.879 77.8058 133.525 77.7352 134.185C76.9491 141.537 48.6702 118.01 47.2424 112.518C46.8119 110.863 49.7885 109.195 51.4424 109.633V109.633Z" stroke="#131313" stroke-linecap="round" stroke-linejoin="round"/>
<path d="M87.3373 123.397C88.5181 116.458 84.1957 109.089 81.8869 106.272L62.1761 88.0049C60.9218 87.1867 57.7044 87.5731 57.7035 89.0707C57.7005 94.1821 86.0618 130.891 87.3373 123.397Z" fill="url(#paint8_linear_3_282)"/>
<path d="M61.9883 87.8308L62.1761 88.0049M62.1761 88.0049L81.8869 106.272C84.1957 109.089 88.5181 116.458 87.3373 123.397C86.0618 130.891 57.7005 94.1821 57.7035 89.0707C57.7044 87.5731 60.9218 87.1867 62.1761 88.0049V88.0049Z" stroke="#131313" stroke-linecap="round" stroke-linejoin="round"/>
<path d="M97.8623 116.203C99.1824 113.783 99.7814 111.149 99.9349 108.592C100.411 100.661 95.7329 93.5841 91.4136 86.9151L82.3923 72.9864C81.1509 71.6859 77.403 71.4052 76.9641 73.1486C75.4673 79.0937 93.781 123.682 97.8623 116.203Z" fill="url(#paint9_linear_3_282)"/>
<path d="M82.2444 72.7581L82.3923 72.9864M82.3923 72.9864L91.4136 86.9151C95.7329 93.5841 100.411 100.661 99.9349 108.592C99.7814 111.149 99.1824 113.783 97.8623 116.203C93.781 123.682 75.4673 79.0937 76.9641 73.1486C77.403 71.4052 81.1509 71.6859 82.3923 72.9864V72.9864Z" stroke="#131313" stroke-linecap="round" stroke-linejoin="round"/>
<path d="M111.095 111.166C116.506 104.421 116.52 93.5974 115.851 89.0288L106.637 56.2928C105.887 54.6794 102.372 52.9369 101.432 54.4477C98.2427 59.5764 105.227 118.481 111.095 111.166Z" fill="url(#paint10_linear_3_282)"/>
<path d="M106.549 55.9808L106.637 56.2928M106.637 56.2928L115.851 89.0288C116.52 93.5974 116.506 104.421 111.095 111.166C105.227 118.481 98.2427 59.5764 101.432 54.4477C102.372 52.9369 105.887 54.6794 106.637 56.2928V56.2928Z" stroke="#131313" stroke-linecap="round" stroke-linejoin="round"/>
<path d="M216.79 201.024C213.151 202.946 196.55 198.747 199.576 193.907C203.033 188.378 210.298 191.275 215.611 195.055L217.344 196.287C218.315 197.583 218.221 200.268 216.79 201.024Z" fill="url(#paint11_linear_3_282)"/>
<path d="M217.437 196.353L217.344 196.287M217.344 196.287L215.611 195.055C210.298 191.275 203.033 188.378 199.576 193.907V193.907C196.55 198.747 213.151 202.946 216.79 201.024C218.221 200.268 218.315 197.583 217.344 196.287V196.287Z" stroke="#131313" stroke-linecap="round" stroke-linejoin="round"/>
<path d="M228.356 190.248C224.114 192.503 204.881 187.621 208.404 181.939C212.41 175.476 220.865 178.831 227.042 183.266L229.019 184.685C230.15 186.213 230.035 189.356 228.356 190.248Z" fill="url(#paint12_linear_3_282)"/>
<path d="M229.127 184.763L229.019 184.685M229.019 184.685L227.042 183.266C220.865 178.831 212.41 175.476 208.404 181.939V181.939C204.881 187.621 224.114 192.503 228.356 190.248C230.035 189.356 230.15 186.213 229.019 184.685V184.685Z" stroke="#131313" stroke-linecap="round" stroke-linejoin="round"/>
<path d="M237.52 174.73C233.844 177.78 212.563 177.483 214.885 171.454C217.645 164.287 226.911 165.849 234.114 168.511L236.836 169.518C238.257 170.598 238.894 173.59 237.52 174.73Z" fill="url(#paint13_linear_3_282)"/>
<path d="M236.966 169.566L236.836 169.518M236.836 169.518L234.114 168.511C226.911 165.849 217.645 164.287 214.885 171.454V171.454C212.563 177.483 233.844 177.78 237.52 174.73C238.894 173.59 238.257 170.598 236.836 169.518V169.518Z" stroke="#131313" stroke-linecap="round" stroke-linejoin="round"/>
<path d="M245.512 154.217C242.803 157.281 215.005 163.538 217.135 158.536C220.315 151.065 230.54 151.294 238.658 151.159L243.682 151.076C244.876 151.304 246.317 153.307 245.512 154.217Z" fill="url(#paint14_linear_3_282)"/>
<path d="M243.846 151.073L243.682 151.076M243.682 151.076L238.658 151.159C230.54 151.294 220.315 151.065 217.135 158.536V158.536C215.005 163.538 242.803 157.281 245.512 154.217C246.317 153.307 244.876 151.304 243.682 151.076V151.076Z" stroke="#131313" stroke-linecap="round" stroke-linejoin="round"/>
<path d="M247.875 133.476C245.292 138.352 215.898 152.669 216.479 145.578C217.291 135.681 229.527 132.802 239.233 130.704L244.625 129.539C246.347 129.575 248.681 131.954 247.875 133.476Z" fill="url(#paint15_linear_3_282)"/>
<path d="M244.815 129.497L244.625 129.539M244.625 129.539L239.233 130.704C229.527 132.802 217.291 135.681 216.479 145.578V145.578C215.898 152.669 245.292 138.352 247.875 133.476C248.681 131.954 246.347 129.575 244.625 129.539V129.539Z" stroke="#131313" stroke-linecap="round" stroke-linejoin="round"/>
<path d="M212.265 133.153C212.194 132.493 212.172 131.847 212.191 131.217C212.478 121.756 222.734 116.746 231.149 112.414L238.558 108.6C240.211 108.163 243.188 109.83 242.758 111.486C241.33 116.978 213.051 140.504 212.265 133.153Z" fill="url(#paint16_linear_3_282)"/>
<path d="M238.749 108.502L238.558 108.6M238.558 108.6L231.149 112.414C222.734 116.746 212.478 121.756 212.191 131.217C212.172 131.847 212.194 132.493 212.265 133.153C213.051 140.504 241.33 116.978 242.758 111.486C243.188 109.83 240.211 108.163 238.558 108.6V108.6Z" stroke="#131313" stroke-linecap="round" stroke-linejoin="round"/>
<path d="M202.663 122.364C201.482 115.426 205.804 108.057 208.113 105.24L227.824 86.9727C229.078 86.1545 232.296 86.5409 232.296 88.0385C232.299 93.1499 203.938 129.859 202.663 122.364Z" fill="url(#paint17_linear_3_282)"/>
<path d="M228.012 86.7986L227.824 86.9727M227.824 86.9727L208.113 105.24C205.804 108.057 201.482 115.426 202.663 122.364C203.938 129.859 232.299 93.1499 232.296 88.0385C232.296 86.5409 229.078 86.1545 227.824 86.9727V86.9727Z" stroke="#131313" stroke-linecap="round" stroke-linejoin="round"/>
<path d="M192.138 115.17C190.818 112.751 190.219 110.117 190.065 107.56C189.589 99.6288 194.267 92.5518 198.586 85.8829L207.608 71.9541C208.849 70.6537 212.597 70.3729 213.036 72.1164C214.533 78.0615 196.219 122.649 192.138 115.17Z" fill="url(#paint18_linear_3_282)"/>
<path d="M207.756 71.7259L207.608 71.9541M207.608 71.9541L198.586 85.8829C194.267 92.5518 189.589 99.6288 190.065 107.56C190.219 110.117 190.818 112.751 192.138 115.17C196.219 122.649 214.533 78.0615 213.036 72.1164C212.597 70.3729 208.849 70.6537 207.608 71.9541V71.9541Z" stroke="#131313" stroke-linecap="round" stroke-linejoin="round"/>
<path d="M178.905 110.134C173.494 103.389 173.48 92.5652 174.149 87.9966L183.363 55.2606C184.113 53.6471 187.628 51.9046 188.568 53.4154C191.757 58.5441 184.773 117.449 178.905 110.134Z" fill="url(#paint19_linear_3_282)"/>
<path d="M183.451 54.9485L183.363 55.2606M183.363 55.2606L174.149 87.9966C173.48 92.5652 173.494 103.389 178.905 110.134C184.773 117.449 191.757 58.5441 188.568 53.4154C187.628 51.9046 184.113 53.6471 183.363 55.2606V55.2606Z" stroke="#131313" stroke-linecap="round" stroke-linejoin="round"/>
<defs>
<linearGradient id="paint0_linear_3_282" x1="118.855" y1="143" x2="118.855" y2="217" gradientUnits="userSpaceOnUse">
<stop stop-color="#F09D1D"/>
<stop offset="1" stop-color="#F2A42C"/>
</linearGradient>
<linearGradient id="paint1_linear_3_282" x1="172.855" y1="143" x2="172.855" y2="218" gradientUnits="userSpaceOnUse">
<stop stop-color="#F09D1D"/>
<stop offset="1" stop-color="#F2A42C"/>
</linearGradient>
<linearGradient id="paint2_linear_3_282" x1="80.1501" y1="190.803" x2="82.2635" y2="201.698" gradientUnits="userSpaceOnUse">
<stop stop-color="#0E5271"/>
<stop offset="1" stop-color="#0E7EB1"/>
</linearGradient>
<linearGradient id="paint3_linear_3_282" x1="69.6621" y1="178.092" x2="72.1425" y2="190.879" gradientUnits="userSpaceOnUse">
<stop stop-color="#0E5271"/>
<stop offset="1" stop-color="#0E7EB1"/>
</linearGradient>
<linearGradient id="paint4_linear_3_282" x1="63.924" y1="165.41" x2="63.4905" y2="177.719" gradientUnits="userSpaceOnUse">
<stop stop-color="#0E5271"/>
<stop offset="1" stop-color="#0E7EB1"/>
</linearGradient>
<linearGradient id="paint5_linear_3_282" x1="60.1106" y1="151.525" x2="58.0055" y2="159.976" gradientUnits="userSpaceOnUse">
<stop stop-color="#0E5271"/>
<stop offset="1" stop-color="#0E7EB1"/>
</linearGradient>
<linearGradient id="paint6_linear_3_282" x1="61.6892" y1="132.946" x2="56.0285" y2="143.755" gradientUnits="userSpaceOnUse">
<stop stop-color="#0E5271"/>
<stop offset="1" stop-color="#0E7EB1"/>
</linearGradient>
<linearGradient id="paint7_linear_3_282" x1="68.0385" y1="116.901" x2="60.0006" y2="126.081" gradientUnits="userSpaceOnUse">
<stop stop-color="#0E5271"/>
<stop offset="1" stop-color="#0E7EB1"/>
</linearGradient>
<linearGradient id="paint8_linear_3_282" x1="78.5638" y1="101.796" x2="69.8461" y2="108.31" gradientUnits="userSpaceOnUse">
<stop stop-color="#0E5271"/>
<stop offset="1" stop-color="#0E7EB1"/>
</linearGradient>
<linearGradient id="paint9_linear_3_282" x1="95.7879" y1="91.4333" x2="83.6961" y2="96.1292" gradientUnits="userSpaceOnUse">
<stop stop-color="#0E5271"/>
<stop offset="1" stop-color="#0E7EB1"/>
</linearGradient>
<linearGradient id="paint10_linear_3_282" x1="115.142" y1="81.9964" x2="102.239" y2="83.334" gradientUnits="userSpaceOnUse">
<stop stop-color="#0E5271"/>
<stop offset="1" stop-color="#0E7EB1"/>
</linearGradient>
<linearGradient id="paint11_linear_3_282" x1="209.85" y1="189.771" x2="207.736" y2="200.666" gradientUnits="userSpaceOnUse">
<stop stop-color="#0E7EB1"/>
<stop offset="1" stop-color="#0E5271"/>
</linearGradient>
<linearGradient id="paint12_linear_3_282" x1="220.338" y1="177.059" x2="217.857" y2="189.847" gradientUnits="userSpaceOnUse">
<stop stop-color="#0E7EB1"/>
<stop offset="1" stop-color="#0E5271"/>
</linearGradient>
<linearGradient id="paint13_linear_3_282" x1="226.076" y1="164.378" x2="226.51" y2="176.686" gradientUnits="userSpaceOnUse">
<stop stop-color="#0E7EB1"/>
<stop offset="1" stop-color="#0E5271"/>
</linearGradient>
<linearGradient id="paint14_linear_3_282" x1="229.889" y1="150.493" x2="231.995" y2="158.943" gradientUnits="userSpaceOnUse">
<stop stop-color="#0E7EB1"/>
<stop offset="1" stop-color="#0E5271"/>
</linearGradient>
<linearGradient id="paint15_linear_3_282" x1="228.311" y1="131.914" x2="233.971" y2="142.723" gradientUnits="userSpaceOnUse">
<stop stop-color="#0E7EB1"/>
<stop offset="1" stop-color="#0E5271"/>
</linearGradient>
<linearGradient id="paint16_linear_3_282" x1="221.961" y1="115.869" x2="229.999" y2="125.049" gradientUnits="userSpaceOnUse">
<stop stop-color="#0E7EB1"/>
<stop offset="1" stop-color="#0E5271"/>
</linearGradient>
<linearGradient id="paint17_linear_3_282" x1="211.436" y1="100.764" x2="220.154" y2="107.278" gradientUnits="userSpaceOnUse">
<stop stop-color="#0E7EB1"/>
<stop offset="1" stop-color="#0E5271"/>
</linearGradient>
<linearGradient id="paint18_linear_3_282" x1="194.212" y1="90.4011" x2="206.304" y2="95.097" gradientUnits="userSpaceOnUse">
<stop stop-color="#0E7EB1"/>
<stop offset="1" stop-color="#0E5271"/>
</linearGradient>
<linearGradient id="paint19_linear_3_282" x1="174.858" y1="80.9642" x2="187.761" y2="82.3018" gradientUnits="userSpaceOnUse">
<stop stop-color="#0E7EB1"/>
<stop offset="1" stop-color="#0E5271"/>
</linearGradient>
</defs>
</svg>
