<svg width="242" height="195" viewBox="0 0 242 195" fill="none" xmlns="http://www.w3.org/2000/svg">
<path d="M64.2327 158.385C64.0834 158.186 64 158.039 64 157.968C64.0763 158.108 64.1539 158.247 64.2327 158.385C64.9095 159.289 66.9402 161.29 68.6997 162.421C70.2091 163.391 71.1868 163.751 72.8773 164.4L72.914 164.414C76.193 165.673 78.207 166.447 81.7546 166.379C84.0341 166.336 85.4888 166.002 87.4987 164.895C89.493 163.796 91.6762 160.937 91.6762 160.937C91.6762 160.937 92.7413 158.006 92.7206 155.989C92.6974 153.727 90.6319 150.546 90.6319 150.546C89.9356 149.392 88.2298 146.786 86.9765 145.598C85.4099 144.114 82.799 140.651 82.2768 140.156C81.859 139.76 78.6214 136.363 77.0548 134.713C75.4882 133.064 71.8329 126.797 71.8329 126.797C71.8329 126.797 69.5077 122.73 69.2219 119.87C68.9501 117.15 70.2663 112.943 70.2663 112.943C70.2663 112.943 72.0122 108.44 73.9217 106.016C75.4743 104.045 78.6214 101.563 78.6214 101.563C78.6214 101.563 81.3094 99.6586 83.3211 99.0893C84.7028 98.6983 85.5076 98.3041 86.9765 98.0998C88.5906 97.8753 91.154 98.0998 91.154 98.0998C92.9894 98.293 94.0468 98.5973 95.8538 99.0893C97.0934 99.4268 97.8082 99.4211 98.9869 100.079C100.499 100.922 102.642 102.553 102.642 102.553L105.253 105.027L107.342 107.995C107.342 107.995 108.074 109.163 108.386 109.974C108.675 110.723 108.909 111.954 108.909 111.954C107.864 110.304 105.358 106.709 103.687 105.521C102.016 104.334 99.161 103.707 97.9426 103.542C96.376 103.707 93.2428 104.136 93.2428 104.532C93.2428 105.027 91.6762 105.027 90.1097 106.511C88.8564 107.698 87.4987 110.634 86.9765 111.954C86.9765 114.098 87.3943 118.683 89.0653 119.87C90.7363 121.057 95.6797 125.972 97.9426 128.281L107.864 137.682C109.605 139.826 113.191 145.104 113.608 149.062C114.131 154.01 114.131 156.484 113.608 157.968C111.262 164.637 105.089 171.394 97.4204 171.822C89.3272 172.637 71.4905 171.064 64.2327 158.385Z" fill="url(#paint0_linear_3_282)"/>
<path d="M64 157.968C64 158.364 66.5519 161.04 68.6997 162.421C70.2091 163.391 71.1868 163.751 72.8773 164.4C76.178 165.667 78.1938 166.447 81.7546 166.379C84.0341 166.336 85.4889 166.002 87.4987 164.895C89.493 163.796 91.6762 160.937 91.6762 160.937C91.6762 160.937 92.7413 158.006 92.7206 155.989C92.6974 153.727 90.6319 150.546 90.6319 150.546C89.9356 149.392 88.2298 146.786 86.9765 145.598C85.4099 144.114 82.799 140.651 82.2768 140.156C81.859 139.76 78.6214 136.363 77.0548 134.713C75.4883 133.064 71.8329 126.797 71.8329 126.797C71.8329 126.797 69.5077 122.73 69.2219 119.87C68.9501 117.15 70.2663 112.943 70.2663 112.943C70.2663 112.943 72.0122 108.44 73.9217 106.016C75.4743 104.045 78.6214 101.563 78.6214 101.563C78.6214 101.563 81.3094 99.6586 83.3211 99.0893C84.7028 98.6983 85.5076 98.3041 86.9765 98.0998C88.5906 97.8753 91.154 98.0998 91.154 98.0998C92.9894 98.293 94.0468 98.5973 95.8538 99.0893C97.0934 99.4268 97.8082 99.4211 98.9869 100.079C100.499 100.922 102.642 102.553 102.642 102.553L105.253 105.027L107.342 107.995C107.342 107.995 108.074 109.163 108.386 109.974C108.675 110.723 108.909 111.954 108.909 111.954C107.864 110.304 105.358 106.709 103.687 105.521C102.016 104.334 99.161 103.707 97.9426 103.542C96.376 103.707 93.2428 104.136 93.2428 104.532C93.2428 105.027 91.6762 105.027 90.1097 106.511C88.8564 107.698 87.4987 110.634 86.9765 111.954C86.9765 114.098 87.3943 118.683 89.0653 119.87C90.7363 121.057 95.6797 125.972 97.9426 128.281L107.864 137.682C109.605 139.826 113.191 145.104 113.608 149.062C114.131 154.01 114.131 156.484 113.608 157.968C111.262 164.637 105.089 171.394 97.4204 171.822C89.2393 172.646 71.1018 171.03 64 157.968Z" stroke="#131313" stroke-linejoin="round"/>
<path d="M167.767 159.201C167.917 158.999 168 158.851 168 158.778C167.924 158.92 167.846 159.061 167.767 159.201C167.091 160.117 165.06 162.145 163.3 163.291C161.791 164.275 160.813 164.639 159.123 165.297L159.086 165.312C155.807 166.588 153.793 167.372 150.245 167.303C147.966 167.259 146.511 166.921 144.501 165.799C142.507 164.685 140.324 161.787 140.324 161.787C140.324 161.787 139.259 158.817 139.279 156.772C139.303 154.48 141.368 151.256 141.368 151.256C142.064 150.086 143.77 147.445 145.023 146.242C146.59 144.737 149.201 141.227 149.723 140.726C150.141 140.324 153.379 136.881 154.945 135.209C156.512 133.538 160.167 127.186 160.167 127.186C160.167 127.186 162.492 123.064 162.778 120.166C163.05 117.408 161.734 113.145 161.734 113.145C161.734 113.145 159.988 108.581 158.078 106.125C156.526 104.127 153.379 101.611 153.379 101.611C153.379 101.611 150.691 99.681 148.679 99.1041C147.297 98.7078 146.492 98.3082 145.023 98.1011C143.409 97.8736 140.846 98.1011 140.846 98.1011C139.011 98.297 137.953 98.6054 136.146 99.1041C134.907 99.4461 134.192 99.4403 133.013 100.107C131.501 100.962 129.358 102.614 129.358 102.614L126.747 105.122L124.658 108.13C124.658 108.13 123.926 109.314 123.614 110.136C123.325 110.895 123.091 112.142 123.091 112.142C124.136 110.471 126.642 106.827 128.313 105.623C129.984 104.42 132.839 103.784 134.057 103.617C135.624 103.784 138.757 104.219 138.757 104.62C138.757 105.122 140.324 105.122 141.89 106.626C143.144 107.83 144.501 110.805 145.023 112.142C145.023 114.315 144.606 118.962 142.935 120.166C141.264 121.369 136.32 126.35 134.057 128.69L124.136 138.218C122.395 140.391 118.809 145.74 118.392 149.752C117.869 154.767 117.869 157.274 118.392 158.778C120.738 165.538 126.911 172.386 134.58 172.819C142.673 173.646 160.51 172.052 167.767 159.201Z" fill="url(#paint1_linear_3_282)"/>
<path d="M168 158.778C168 159.179 165.448 161.892 163.3 163.291C161.791 164.275 160.813 164.639 159.123 165.297C155.822 166.582 153.806 167.372 150.245 167.303C147.966 167.259 146.511 166.921 144.501 165.799C142.507 164.685 140.324 161.787 140.324 161.787C140.324 161.787 139.259 158.817 139.279 156.772C139.303 154.48 141.368 151.256 141.368 151.256C142.064 150.086 143.77 147.445 145.023 146.242C146.59 144.737 149.201 141.227 149.723 140.726C150.141 140.324 153.379 136.881 154.945 135.209C156.512 133.538 160.167 127.186 160.167 127.186C160.167 127.186 162.492 123.064 162.778 120.166C163.05 117.408 161.734 113.145 161.734 113.145C161.734 113.145 159.988 108.581 158.078 106.125C156.526 104.127 153.379 101.611 153.379 101.611C153.379 101.611 150.691 99.681 148.679 99.1041C147.297 98.7078 146.492 98.3082 145.023 98.1011C143.409 97.8736 140.846 98.1011 140.846 98.1011C139.011 98.297 137.953 98.6054 136.146 99.1041C134.907 99.4461 134.192 99.4403 133.013 100.107C131.501 100.962 129.358 102.614 129.358 102.614L126.747 105.122L124.658 108.13C124.658 108.13 123.926 109.314 123.614 110.136C123.325 110.895 123.091 112.142 123.091 112.142C124.136 110.471 126.642 106.827 128.313 105.623C129.984 104.42 132.839 103.784 134.057 103.617C135.624 103.784 138.757 104.219 138.757 104.62C138.757 105.122 140.324 105.122 141.89 106.626C143.144 107.83 144.501 110.805 145.023 112.142C145.023 114.315 144.606 118.962 142.935 120.166C141.264 121.369 136.32 126.35 134.057 128.69L124.136 138.218C122.395 140.391 118.809 145.74 118.392 149.752C117.869 154.767 117.869 157.274 118.392 158.778C120.738 165.538 126.911 172.386 134.58 172.819C142.761 173.655 160.898 172.017 168 158.778Z" stroke="#131313" stroke-linejoin="round"/>
<path fill-rule="evenodd" clip-rule="evenodd" d="M83.7303 76.4004C75.4733 77.2734 63.4593 83.8174 59.5303 89.5814C59.2003 90.0664 58.1973 91.4284 57.3003 92.6084C54.1933 96.7004 52.5823 100.327 50.6623 107.554C49.0633 113.569 50.4921 128.183 53.5261 133.5C55.0177 136.114 55.8682 137.102 56.1809 136.5C56.5063 135.874 56.2492 133.526 55.5261 129.5C52.4731 112.499 57.5303 97.8484 70.1113 89.9714C72.0813 88.7374 74.1513 87.6194 74.7113 87.4844C75.2723 87.3504 76.3833 86.9144 77.1813 86.5144C87.2053 81.4964 105.874 86.2704 114.16 95.9694C116.489 98.6954 116.197 98.7394 119.859 95.1194C129.675 85.4164 145.782 81.6054 156.035 86.5594C156.94 86.9964 157.896 87.3544 158.161 87.3544C160.804 87.3544 169.963 95.0304 173.196 99.9544C178.121 107.456 180.184 118.537 178.185 126.754C176.873 132.144 177.272 136.189 178.746 132.454C179.029 131.739 179.579 130.794 179.97 130.354C183.007 126.933 183.959 111.23 181.573 103.904C172.945 77.4054 140.977 67.3494 119.689 84.4374C117.664 86.0624 115.73 86.1964 114.061 84.8264C111.844 83.0074 107.31 80.1994 106.13 79.9134C105.47 79.7534 104.48 79.2994 103.93 78.9054C101.322 77.0334 90.4683 75.6874 83.7303 76.4004Z" fill="#AA6700"/>
<path d="M176.296 140.717C177.743 137.98 180.09 131.733 181.272 128.318C181.666 127.178 180.829 126.369 179.679 126.732C179.178 126.89 178.772 127.26 178.573 127.746C177.432 130.529 175.685 135.007 174.741 136.812C173.704 138.793 168.55 151.219 168 152C169.901 149.384 174.741 143.66 176.296 140.717Z" fill="#F09D1D" stroke="#F09D1D" stroke-linecap="round" stroke-linejoin="round"/>
<path d="M58.5512 143.175C56.9479 140.527 54.2405 134.427 52.8621 131.087C52.4022 129.972 53.1907 129.116 54.3599 129.411C54.8692 129.54 55.296 129.885 55.5231 130.359C56.8236 133.07 58.8286 137.439 59.8767 139.186C61.0274 141.104 66.8961 153.209 67.4907 153.956C65.4403 151.455 60.2756 146.023 58.5512 143.175Z" fill="#F09D1D" stroke="#F09D1D" stroke-linecap="round" stroke-linejoin="round"/>
<path d="M115.5 99.5C114.833 98 111.1 93.7 101.5 88.5C89.5 82 76 87.5 71.5 89.5C67 91.5 59 100.5 55.5 109.5C52 118.5 55 127 56.5 133C57.6633 137.653 65.8121 150.513 70.1054 156.914C70.3674 157.304 70.6674 157.667 71 158V158L64 151.5L62.6256 149.914C59.222 145.987 56.3242 141.648 54 137V137L52.1556 132.257C51.0545 129.426 50.2341 126.493 49.7062 123.502L49.6265 123.05C49.2096 120.688 49 118.294 49 115.895V115.503C49 112.182 49.4334 108.875 50.2891 105.666V105.666C50.7624 103.891 51.3632 102.152 52.0869 100.464L52.1739 100.261C53.3875 97.4292 54.9146 94.7425 56.7266 92.2509L58 90.5V90.5C60.3248 87.8431 62.962 85.4766 65.8543 83.452L66.5 83L71 80.5L73.4209 79.2895C74.4723 78.7638 75.5597 78.3134 76.6749 77.9417V77.9417C78.5516 77.3161 80.4963 76.917 82.4676 76.7527L85.5 76.5H90.2689C92.087 76.5 93.9024 76.6388 95.6993 76.9153V76.9153C98.2258 77.304 100.721 77.9696 103.107 78.8872V78.8872C105.023 79.6241 106.885 80.531 108.645 81.5871L110.154 82.4925C110.717 82.8303 111.253 83.2111 111.758 83.6315L113.395 84.9957C113.793 85.3276 114.261 85.5653 114.764 85.691L114.915 85.7288C115.615 85.9038 116.355 85.8226 117 85.5V85.5L121.302 82.7167C124.089 80.9128 127.094 79.4687 130.244 78.4186V78.4186C133.072 77.4759 135.998 76.8573 138.966 76.5747L139.707 76.5041C143.219 76.1696 146.76 76.32 150.231 76.9511V76.9511C154.055 77.6463 157.751 78.9173 161.194 80.7207L161.621 80.9441C164.859 82.6403 167.892 84.7991 170.564 87.2934V87.2934C172.826 89.4043 174.867 91.8001 176.583 94.3743L176.834 94.7507C178.274 96.9105 179.475 99.2204 180.415 101.64V101.64C181.796 105.19 182.602 108.939 182.802 112.744L182.831 113.293C182.944 115.427 182.881 117.568 182.645 119.692L182.545 120.596C182.182 123.858 181.502 127.076 180.514 130.205L180.179 131.266C179.394 133.751 178.414 136.171 177.249 138.502V138.502C175.753 141.493 173.959 144.325 171.893 146.954L171.804 147.068C170.27 149.02 168.597 150.858 166.791 152.563C164.397 154.824 161.782 157.28 161.5 157.5C166.5 154 175 135.5 177.5 122.5C180 109.5 172.5 101.5 172.5 101C172.5 100.5 163.5 91.5 159.5 89C155.5 86.5 148.5 85.5 142 85.5C135.5 85.5 123 93.5 122.5 94C122.1 94.4 117.667 98.1667 115.5 100" stroke="black" stroke-linecap="round" stroke-linejoin="round"/>
<path d="M43.3551 157.056C46.9935 158.979 63.5947 154.779 60.5686 149.94C57.1118 144.411 49.8471 147.308 44.5334 151.087L42.8005 152.319C41.83 153.615 41.9238 156.3 43.3551 157.056Z" fill="url(#paint2_linear_3_282)"/>
<path d="M42.7076 152.385L42.8005 152.319M42.8005 152.319L44.5334 151.087C49.8471 147.308 57.1118 144.411 60.5686 149.94V149.94C63.5947 154.779 46.9935 158.979 43.3551 157.056C41.9238 156.3 41.83 153.615 42.8005 152.319V152.319Z" stroke="#131313" stroke-linecap="round" stroke-linejoin="round"/>
<path d="M31.7885 146.28C36.0311 148.535 55.2632 143.653 51.7409 137.971C47.735 131.508 39.2799 134.864 33.1031 139.298L31.1255 140.718C29.9944 142.246 30.1097 145.388 31.7885 146.28Z" fill="url(#paint3_linear_3_282)"/>
<path d="M31.0178 140.795L31.1255 140.718M31.1255 140.718L33.1031 139.298C39.2799 134.864 47.735 131.508 51.7409 137.971V137.971C55.2632 143.653 36.0311 148.535 31.7885 146.28C30.1097 145.388 29.9944 142.246 31.1255 140.718V140.718Z" stroke="#131313" stroke-linecap="round" stroke-linejoin="round"/>
<path d="M22.6243 130.762C26.3007 133.812 47.582 133.515 45.2599 127.486C42.4998 120.32 33.2335 121.881 26.0305 124.544L23.3086 125.55C21.8878 126.631 21.2505 129.622 22.6243 130.762Z" fill="url(#paint4_linear_3_282)"/>
<path d="M23.1791 125.598L23.3086 125.55M23.3086 125.55L26.0305 124.544C33.2335 121.881 42.4998 120.32 45.2599 127.486V127.486C47.582 133.515 26.3007 133.812 22.6243 130.762C21.2505 129.622 21.8878 126.631 23.3086 125.55V125.55Z" stroke="#131313" stroke-linecap="round" stroke-linejoin="round"/>
<path d="M14.6326 110.25C17.3418 113.313 45.1395 119.57 43.0101 114.569C39.8295 107.098 29.6049 107.326 21.4862 107.192L16.4627 107.108C15.2687 107.336 13.8275 109.339 14.6326 110.25Z" fill="url(#paint5_linear_3_282)"/>
<path d="M16.2985 107.106L16.4627 107.108M16.4627 107.108L21.4862 107.192C29.6049 107.326 39.8295 107.098 43.0101 114.569V114.569C45.1395 119.57 17.3418 113.313 14.6326 110.25C13.8275 109.339 15.2687 107.336 16.4627 107.108V107.108Z" stroke="#131313" stroke-linecap="round" stroke-linejoin="round"/>
<path d="M12.2699 89.5087C14.8525 94.3843 44.2469 108.701 43.6655 101.61C42.8541 91.7136 30.6177 88.8346 20.9119 86.7364L15.5199 85.5707C13.7976 85.6069 11.4635 87.9863 12.2699 89.5087Z" fill="url(#paint6_linear_3_282)"/>
<path d="M15.3294 85.5296L15.5199 85.5707M15.5199 85.5707L20.9119 86.7364C30.6177 88.8346 42.8541 91.7136 43.6655 101.61V101.61C44.2469 108.701 14.8525 94.3843 12.2699 89.5087C11.4635 87.9863 13.7976 85.6069 15.5199 85.5707V85.5707Z" stroke="#131313" stroke-linecap="round" stroke-linejoin="round"/>
<path d="M47.8799 89.1851C47.9504 88.5254 47.9729 87.8795 47.9537 87.249C47.6664 77.7887 37.4103 72.7779 28.9952 68.4461L21.587 64.6327C19.9332 64.1948 16.9566 65.8626 17.387 67.5184C18.8148 73.0101 47.0938 96.5367 47.8799 89.1851Z" fill="url(#paint7_linear_3_282)"/>
<path d="M21.3958 64.5343L21.587 64.6327M21.587 64.6327L28.9952 68.4461C37.4103 72.7779 47.6664 77.7887 47.9537 87.249C47.9729 87.8795 47.9504 88.5254 47.8799 89.1851C47.0938 96.5367 18.8148 73.0101 17.387 67.5184C16.9566 65.8626 19.9332 64.1948 21.587 64.6327V64.6327Z" stroke="#131313" stroke-linecap="round" stroke-linejoin="round"/>
<path d="M57.4819 78.3966C58.6628 71.4582 54.3404 64.0895 52.0316 61.2724L32.3208 43.0049C31.0664 42.1867 27.849 42.5731 27.8481 44.0707C27.8451 49.1821 56.2065 85.8912 57.4819 78.3966Z" fill="url(#paint8_linear_3_282)"/>
<path d="M32.1329 42.8308L32.3208 43.0049M32.3208 43.0049L52.0316 61.2724C54.3404 64.0895 58.6628 71.4582 57.4819 78.3966C56.2065 85.8911 27.8451 49.1821 27.8481 44.0707C27.849 42.5731 31.0664 42.1867 32.3208 43.0049V43.0049Z" stroke="#131313" stroke-linecap="round" stroke-linejoin="round"/>
<path d="M68.0069 71.2026C69.3271 68.7834 69.926 66.1488 70.0796 63.5923C70.5559 55.661 65.8776 48.5841 61.5582 41.9151L52.5369 27.9864C51.2955 26.6859 47.5477 26.4052 47.1087 28.1486C45.6119 34.0937 63.9256 78.6817 68.0069 71.2026Z" fill="url(#paint9_linear_3_282)"/>
<path d="M52.3891 27.7581L52.5369 27.9864M52.5369 27.9864L61.5582 41.9151C65.8776 48.5841 70.5559 55.661 70.0796 63.5923C69.926 66.1488 69.3271 68.7834 68.0069 71.2026C63.9256 78.6817 45.6119 34.0937 47.1087 28.1486C47.5477 26.4052 51.2955 26.6859 52.5369 27.9864V27.9864Z" stroke="#131313" stroke-linecap="round" stroke-linejoin="round"/>
<path d="M81.2398 66.166C86.651 59.421 86.6648 48.5974 85.9953 44.0288L76.7817 11.2928C76.032 9.67938 72.5164 7.93689 71.5768 9.44766C68.3874 14.5764 75.3713 73.4812 81.2398 66.166Z" fill="url(#paint10_linear_3_282)"/>
<path d="M76.6938 10.9808L76.7817 11.2928M76.7817 11.2928L85.9953 44.0288C86.6648 48.5974 86.651 59.421 81.2398 66.166C75.3713 73.4812 68.3874 14.5764 71.5768 9.44766C72.5164 7.93689 76.032 9.67938 76.7817 11.2928V11.2928Z" stroke="#131313" stroke-linecap="round" stroke-linejoin="round"/>
<path d="M186.934 156.024C183.296 157.946 166.695 153.747 169.721 148.907C173.177 143.378 180.442 146.275 185.756 150.055L187.489 151.287C188.459 152.583 188.366 155.268 186.934 156.024Z" fill="url(#paint11_linear_3_282)"/>
<path d="M187.582 151.353L187.489 151.287M187.489 151.287L185.756 150.055C180.442 146.275 173.177 143.378 169.721 148.907V148.907C166.695 153.747 183.296 157.946 186.934 156.024C188.366 155.268 188.459 152.583 187.489 151.287V151.287Z" stroke="#131313" stroke-linecap="round" stroke-linejoin="round"/>
<path d="M198.501 145.248C194.258 147.503 175.026 142.621 178.548 136.939C182.554 130.476 191.009 133.831 197.186 138.266L199.164 139.685C200.295 141.213 200.18 144.356 198.501 145.248Z" fill="url(#paint12_linear_3_282)"/>
<path d="M199.272 139.763L199.164 139.685M199.164 139.685L197.186 138.266C191.009 133.831 182.554 130.476 178.548 136.939V136.939C175.026 142.621 194.258 147.503 198.501 145.248C200.18 144.356 200.295 141.213 199.164 139.685V139.685Z" stroke="#131313" stroke-linecap="round" stroke-linejoin="round"/>
<path d="M207.665 129.73C203.989 132.78 182.707 132.483 185.029 126.454C187.79 119.287 197.056 120.849 204.259 123.511L206.981 124.518C208.402 125.598 209.039 128.59 207.665 129.73Z" fill="url(#paint13_linear_3_282)"/>
<path d="M207.11 124.566L206.981 124.518M206.981 124.518L204.259 123.511C197.056 120.849 187.79 119.287 185.029 126.454V126.454C182.707 132.483 203.989 132.78 207.665 129.73C209.039 128.59 208.402 125.598 206.981 124.518V124.518Z" stroke="#131313" stroke-linecap="round" stroke-linejoin="round"/>
<path d="M215.657 109.217C212.948 112.281 185.15 118.538 187.279 113.536C190.46 106.065 200.684 106.294 208.803 106.159L213.827 106.076C215.021 106.304 216.462 108.307 215.657 109.217Z" fill="url(#paint14_linear_3_282)"/>
<path d="M213.991 106.073L213.827 106.076M213.827 106.076L208.803 106.159C200.684 106.294 190.46 106.065 187.279 113.536V113.536C185.15 118.538 212.948 112.281 215.657 109.217C216.462 108.307 215.021 106.304 213.827 106.076V106.076Z" stroke="#131313" stroke-linecap="round" stroke-linejoin="round"/>
<path d="M218.019 88.4765C215.437 93.3521 186.042 107.669 186.624 100.578C187.435 90.6813 199.672 87.8024 209.377 85.7042L214.769 84.5385C216.492 84.5746 218.826 86.9541 218.019 88.4765Z" fill="url(#paint15_linear_3_282)"/>
<path d="M214.96 84.4973L214.769 84.5385M214.769 84.5385L209.377 85.7042C199.672 87.8024 187.435 90.6813 186.624 100.578V100.578C186.042 107.669 215.437 93.3521 218.019 88.4765C218.826 86.9541 216.492 84.5746 214.769 84.5385V84.5385Z" stroke="#131313" stroke-linecap="round" stroke-linejoin="round"/>
<path d="M182.409 88.1528C182.339 87.4932 182.316 86.8473 182.336 86.2167C182.623 76.7565 192.879 71.7457 201.294 67.4139L208.702 63.6005C210.356 63.1626 213.333 64.8304 212.902 66.4862C211.474 71.9779 183.195 95.5045 182.409 88.1528Z" fill="url(#paint16_linear_3_282)"/>
<path d="M208.893 63.502L208.702 63.6005M208.702 63.6005L201.294 67.4139C192.879 71.7457 182.623 76.7565 182.336 86.2167C182.316 86.8472 182.339 87.4932 182.409 88.1528C183.195 95.5045 211.474 71.9779 212.902 66.4862C213.333 64.8304 210.356 63.1626 208.702 63.6005V63.6005Z" stroke="#131313" stroke-linecap="round" stroke-linejoin="round"/>
<path d="M172.807 77.3644C171.627 70.426 175.949 63.0572 178.258 60.2401L197.968 41.9727C199.223 41.1545 202.44 41.5409 202.441 43.0385C202.444 48.1499 174.083 84.8589 172.807 77.3644Z" fill="url(#paint17_linear_3_282)"/>
<path d="M198.156 41.7986L197.968 41.9727M197.968 41.9727L178.258 60.2401C175.949 63.0572 171.627 70.426 172.807 77.3644C174.083 84.8589 202.444 48.1499 202.441 43.0385C202.44 41.5409 199.223 41.1545 197.968 41.9727V41.9727Z" stroke="#131313" stroke-linecap="round" stroke-linejoin="round"/>
<path d="M162.282 70.1704C160.962 67.7512 160.363 65.1165 160.21 62.56C159.733 54.6288 164.412 47.5518 168.731 40.8829L177.752 26.9541C178.994 25.6537 182.742 25.3729 183.181 27.1164C184.677 33.0615 166.364 77.6495 162.282 70.1704Z" fill="url(#paint18_linear_3_282)"/>
<path d="M177.9 26.7259L177.752 26.9541M177.752 26.9541L168.731 40.8829C164.412 47.5518 159.733 54.6288 160.21 62.56C160.363 65.1165 160.962 67.7512 162.282 70.1704C166.364 77.6495 184.677 33.0615 183.181 27.1164C182.742 25.3729 178.994 25.6537 177.752 26.9541V26.9541Z" stroke="#131313" stroke-linecap="round" stroke-linejoin="round"/>
<path d="M149.049 65.1338C143.638 58.3887 143.625 47.5652 144.294 42.9966L153.508 10.2606C154.257 8.64714 157.773 6.90465 158.712 8.41542C161.902 13.5441 154.918 72.4489 149.049 65.1338Z" fill="url(#paint19_linear_3_282)"/>
<path d="M153.595 9.94855L153.508 10.2606M153.508 10.2606L144.294 42.9966C143.625 47.5652 143.638 58.3887 149.049 65.1338C154.918 72.4489 161.902 13.5441 158.712 8.41542C157.773 6.90465 154.257 8.64714 153.508 10.2606V10.2606Z" stroke="#131313" stroke-linecap="round" stroke-linejoin="round"/>
<defs>
<linearGradient id="paint0_linear_3_282" x1="89" y1="98" x2="89" y2="172" gradientUnits="userSpaceOnUse">
<stop stop-color="#F09D1D"/>
<stop offset="1" stop-color="#F2A42C"/>
</linearGradient>
<linearGradient id="paint1_linear_3_282" x1="143" y1="98" x2="143" y2="173" gradientUnits="userSpaceOnUse">
<stop stop-color="#F09D1D"/>
<stop offset="1" stop-color="#F2A42C"/>
</linearGradient>
<linearGradient id="paint2_linear_3_282" x1="50.2948" y1="145.803" x2="52.4082" y2="156.698" gradientUnits="userSpaceOnUse">
<stop stop-color="#0E5271"/>
<stop offset="1" stop-color="#0E7EB1"/>
</linearGradient>
<linearGradient id="paint3_linear_3_282" x1="39.8067" y1="133.092" x2="42.2872" y2="145.879" gradientUnits="userSpaceOnUse">
<stop stop-color="#0E5271"/>
<stop offset="1" stop-color="#0E7EB1"/>
</linearGradient>
<linearGradient id="paint4_linear_3_282" x1="34.0687" y1="120.41" x2="33.6351" y2="132.719" gradientUnits="userSpaceOnUse">
<stop stop-color="#0E5271"/>
<stop offset="1" stop-color="#0E7EB1"/>
</linearGradient>
<linearGradient id="paint5_linear_3_282" x1="30.2553" y1="106.525" x2="28.1501" y2="114.976" gradientUnits="userSpaceOnUse">
<stop stop-color="#0E5271"/>
<stop offset="1" stop-color="#0E7EB1"/>
</linearGradient>
<linearGradient id="paint6_linear_3_282" x1="31.8338" y1="87.9462" x2="26.1732" y2="98.7552" gradientUnits="userSpaceOnUse">
<stop stop-color="#0E5271"/>
<stop offset="1" stop-color="#0E7EB1"/>
</linearGradient>
<linearGradient id="paint7_linear_3_282" x1="38.1831" y1="71.9015" x2="30.1453" y2="81.0813" gradientUnits="userSpaceOnUse">
<stop stop-color="#0E5271"/>
<stop offset="1" stop-color="#0E7EB1"/>
</linearGradient>
<linearGradient id="paint8_linear_3_282" x1="48.7085" y1="56.7963" x2="39.9907" y2="63.3098" gradientUnits="userSpaceOnUse">
<stop stop-color="#0E5271"/>
<stop offset="1" stop-color="#0E7EB1"/>
</linearGradient>
<linearGradient id="paint9_linear_3_282" x1="65.9326" y1="46.4333" x2="53.8407" y2="51.1292" gradientUnits="userSpaceOnUse">
<stop stop-color="#0E5271"/>
<stop offset="1" stop-color="#0E7EB1"/>
</linearGradient>
<linearGradient id="paint10_linear_3_282" x1="85.2866" y1="36.9964" x2="72.3841" y2="38.334" gradientUnits="userSpaceOnUse">
<stop stop-color="#0E5271"/>
<stop offset="1" stop-color="#0E7EB1"/>
</linearGradient>
<linearGradient id="paint11_linear_3_282" x1="179.995" y1="144.771" x2="177.881" y2="155.666" gradientUnits="userSpaceOnUse">
<stop stop-color="#0E7EB1"/>
<stop offset="1" stop-color="#0E5271"/>
</linearGradient>
<linearGradient id="paint12_linear_3_282" x1="190.483" y1="132.059" x2="188.002" y2="144.847" gradientUnits="userSpaceOnUse">
<stop stop-color="#0E7EB1"/>
<stop offset="1" stop-color="#0E5271"/>
</linearGradient>
<linearGradient id="paint13_linear_3_282" x1="196.221" y1="119.378" x2="196.654" y2="131.686" gradientUnits="userSpaceOnUse">
<stop stop-color="#0E7EB1"/>
<stop offset="1" stop-color="#0E5271"/>
</linearGradient>
<linearGradient id="paint14_linear_3_282" x1="200.034" y1="105.493" x2="202.139" y2="113.943" gradientUnits="userSpaceOnUse">
<stop stop-color="#0E7EB1"/>
<stop offset="1" stop-color="#0E5271"/>
</linearGradient>
<linearGradient id="paint15_linear_3_282" x1="198.455" y1="86.914" x2="204.116" y2="97.7229" gradientUnits="userSpaceOnUse">
<stop stop-color="#0E7EB1"/>
<stop offset="1" stop-color="#0E5271"/>
</linearGradient>
<linearGradient id="paint16_linear_3_282" x1="192.106" y1="70.8692" x2="200.144" y2="80.0491" gradientUnits="userSpaceOnUse">
<stop stop-color="#0E7EB1"/>
<stop offset="1" stop-color="#0E5271"/>
</linearGradient>
<linearGradient id="paint17_linear_3_282" x1="181.581" y1="55.7641" x2="190.299" y2="62.2775" gradientUnits="userSpaceOnUse">
<stop stop-color="#0E7EB1"/>
<stop offset="1" stop-color="#0E5271"/>
</linearGradient>
<linearGradient id="paint18_linear_3_282" x1="164.357" y1="45.4011" x2="176.449" y2="50.097" gradientUnits="userSpaceOnUse">
<stop stop-color="#0E7EB1"/>
<stop offset="1" stop-color="#0E5271"/>
</linearGradient>
<linearGradient id="paint19_linear_3_282" x1="145.003" y1="35.9642" x2="157.905" y2="37.3018" gradientUnits="userSpaceOnUse">
<stop stop-color="#0E7EB1"/>
<stop offset="1" stop-color="#0E5271"/>
</linearGradient>
</defs>
</svg>
